<svg width="2239" height="1027" xmlns="http://www.w3.org/2000/svg" xmlns:xlink="http://www.w3.org/1999/xlink" overflow="hidden"><defs><clipPath id="clip0"><rect x="993" y="858" width="2239" height="1027"/></clipPath></defs><g clip-path="url(#clip0)" transform="translate(-993 -858)"><path d="M995.5 1382C995.5 1320.97 1044.97 1271.5 1106 1271.5 1167.03 1271.5 1216.5 1320.97 1216.5 1382 1216.5 1443.03 1167.03 1492.5 1106 1492.5 1044.97 1492.5 995.5 1443.03 995.5 1382Z" stroke="#000000" stroke-width="4.58333" stroke-miterlimit="8" fill="#FFFFFF" fill-rule="evenodd"/><text font-family="DengXian,DengXian_MSFontService,sans-serif" font-weight="400" font-size="83" transform="matrix(1 0 0 1 1060.7 1409)">h1</text><path d="M3008.5 1382C3008.5 1320.97 3057.97 1271.5 3119 1271.5 3180.03 1271.5 3229.5 1320.97 3229.5 1382 3229.5 1443.03 3180.03 1492.5 3119 1492.5 3057.97 1492.5 3008.5 1443.03 3008.5 1382Z" stroke="#000000" stroke-width="4.58333" stroke-miterlimit="8" fill="#FFFFFF" fill-rule="evenodd"/><text font-family="DengXian,DengXian_MSFontService,sans-serif" font-weight="400" font-size="83" transform="matrix(1 0 0 1 3074.34 1409)">h2</text><rect x="1498.5" y="1271.5" width="221" height="221" stroke="#000000" stroke-width="4.58333" stroke-miterlimit="8" fill="#FFFFFF"/><text font-family="DengXian,DengXian_MSFontService,sans-serif" font-weight="400" font-size="83" transform="matrix(1 0 0 1 1569.44 1409)">s1</text><rect x="1765.5" y="860.5" width="221" height="221" stroke="#000000" stroke-width="4.58333" stroke-miterlimit="8" fill="#FFFFFF"/><text font-family="DengXian,DengXian_MSFontService,sans-serif" font-weight="400" font-size="83" transform="matrix(1 0 0 1 1836.97 998)">s2</text><rect x="2203.5" y="860.5" width="221" height="221" stroke="#000000" stroke-width="4.58333" stroke-miterlimit="8" fill="#FFFFFF"/><text font-family="DengXian,DengXian_MSFontService,sans-serif" font-weight="400" font-size="83" transform="matrix(1 0 0 1 2274.83 998)">s3</text><rect x="2007.5" y="1661.5" width="221" height="221" stroke="#000000" stroke-width="4.58333" stroke-miterlimit="8" fill="#FFFFFF"/><text font-family="DengXian,DengXian_MSFontService,sans-serif" font-weight="400" font-size="83" transform="matrix(1 0 0 1 2078.59 1799)">s5</text><rect x="2550.5" y="1271.5" width="221" height="221" stroke="#000000" stroke-width="4.58333" stroke-miterlimit="8" fill="#FFFFFF"/><text font-family="DengXian,DengXian_MSFontService,sans-serif" font-weight="400" font-size="83" transform="matrix(1 0 0 1 2621.92 1409)">s4</text><path d="M1216 1381 1497.94 1381" stroke="#000000" stroke-width="2.29167" stroke-miterlimit="8" fill="none" fill-rule="evenodd"/><path d="M2771 1381 3008.09 1381" stroke="#000000" stroke-width="2.29167" stroke-miterlimit="8" fill="none" fill-rule="evenodd"/><path d="M0 0 432.791 280.34" stroke="#000000" stroke-width="2.29167" stroke-miterlimit="8" fill="none" fill-rule="evenodd" transform="matrix(1 0 0 -1 2228 1772.34)"/><path d="M1608 1492 2006.62 1772.34" stroke="#000000" stroke-width="2.29167" stroke-miterlimit="8" fill="none" fill-rule="evenodd"/><path d="M2424 971 2660.55 1270.56" stroke="#000000" stroke-width="2.29167" stroke-miterlimit="8" fill="none" fill-rule="evenodd"/><path d="M0 0 156.99 299.563" stroke="#000000" stroke-width="2.29167" stroke-miterlimit="8" fill="none" fill-rule="evenodd" transform="matrix(1 0 0 -1 1608 1270.56)"/><path d="M1986 971 2202.8 971" stroke="#000000" stroke-width="2.29167" stroke-miterlimit="8" fill="none" fill-rule="evenodd"/><text font-family="Arial,Arial_MSFontService,sans-serif" font-weight="400" font-size="46" transform="matrix(1 0 0 1 1227.02 1354)">eth1<tspan font-size="46" x="179.814" y="89">eth1</tspan><tspan font-size="46" x="303.559" y="-122">eth2</tspan><tspan font-size="46" x="347.216" y="210">eth3</tspan><tspan font-size="46" x="1554.95" y="11">eth1</tspan><tspan font-size="46" x="1698.73" y="87">eth1</tspan><tspan font-size="46" x="681.616" y="446">eth1</tspan><tspan font-size="46" x="1026.43" y="446">eth2</tspan><tspan font-size="46" x="1408.51" y="-111">eth2</tspan><tspan font-size="46" x="1389.28" y="210">eth3</tspan><tspan font-size="46" x="444.529" y="-382">eth1</tspan><tspan font-size="46" x="888.672" y="-331">eth1</tspan><tspan font-size="46" x="770.128" y="-405">eth2</tspan><tspan font-size="46" x="1207.99" y="-377">eth2</tspan></text></g></svg>